<svg width="80" height="80" viewBox="0 0 80 80" fill="none" xmlns="http://www.w3.org/2000/svg">
<circle cx="40" cy="40" r="40" fill="#241D2F" fill-opacity="0.8"/>
<path d="M59 51.875C59 54.4949 56.8699 56.625 54.25 56.625H25.75C23.1301 56.625 21 54.4949 21 51.875V28.125C21 25.5051 23.1301 23.375 25.75 23.375H34.4707C35.7324 23.375 36.9422 23.8723 37.8328 24.7629L39.7996 26.7297C40.6902 27.6203 41.9 28.1176 43.1617 28.1176H54.25C56.8699 28.1176 59 30.2477 59 32.8676V51.875ZM38.2188 48.9062C38.2188 49.8934 39.0129 50.6875 40 50.6875C40.9871 50.6875 41.7812 49.8934 41.7812 48.9062V44.1562H46.5312C47.5184 44.1562 48.3125 43.3621 48.3125 42.375C48.3125 41.3879 47.5184 40.5938 46.5312 40.5938H41.7812V35.8438C41.7812 34.8566 40.9871 34.0625 40 34.0625C39.0129 34.0625 38.2188 34.8566 38.2188 35.8438V40.5938H33.4688C32.4816 40.5938 31.6875 41.3879 31.6875 42.375C31.6875 43.3621 32.4816 44.1562 33.4688 44.1562H38.2188V48.9062Z" fill="#D61DDB"/>
</svg>
