<svg width="67" height="54" viewBox="0 0 67 54" fill="none" xmlns="http://www.w3.org/2000/svg">
<rect width="66.3934" height="54" rx="15" fill="#AD1AAF"/>
<g clip-path="url(#clip0_140_328)">
<path d="M47.1159 28.2685C48.0298 27.4472 48.0298 26.1135 47.1159 25.2922L35.418 14.7799C34.5041 13.9586 33.02 13.9586 32.1061 14.7799C31.1922 15.6012 31.1922 16.9349 32.1061 17.7562L39.8194 24.6812H17.3887C16.0946 24.6812 15.0491 25.6207 15.0491 26.7836C15.0491 27.9465 16.0946 28.8861 17.3887 28.8861H39.812L32.1134 35.8111C31.1995 36.6323 31.1995 37.9661 32.1134 38.7873C33.0273 39.6086 34.5114 39.6086 35.4253 38.7873L47.1232 28.2751L47.1159 28.2685Z" fill="white"/>
</g>
<defs>
<clipPath id="clip0_140_328">
<rect width="32.7541" height="33.6393" fill="white" transform="translate(15.0491 10.6229)"/>
</clipPath>
</defs>
</svg>
