<svg width="15" height="16" viewBox="0 0 15 16" fill="none" xmlns="http://www.w3.org/2000/svg">
<g clip-path="url(#clip0_134_97)">
<path d="M7.14844 3.72601L7.47363 4.07757L7.8252 3.72659C8.80664 2.77005 10.166 2.3347 11.502 2.55706C13.5205 2.89339 15 4.64007 15 6.68792V6.85784C15 8.07366 14.4961 9.23675 13.6055 10.0659L8.31152 15.0082C8.0918 15.2133 7.80176 15.3276 7.5 15.3276C7.19824 15.3276 6.9082 15.2133 6.68848 15.0082L1.39424 10.0659C0.504785 9.23675 0 8.07366 0 6.85784V6.68792C0 4.64007 1.48008 2.89339 3.49805 2.55706C4.80762 2.3347 6.19336 2.77005 7.14844 3.72601C7.12207 3.72601 7.14844 3.7263 7.14844 3.72601ZM7.47363 6.06683L6.15527 4.69574C5.51953 4.08577 4.61719 3.79632 3.72949 3.94398C2.38916 4.16751 1.40625 5.32855 1.40625 6.68792V6.85784C1.40625 7.68402 1.74932 8.47503 2.35371 9.03753L7.5 13.8422L12.6475 9.03753C13.251 8.47503 13.5938 7.68402 13.5938 6.85784V6.68792C13.5938 5.32855 12.6094 4.16751 11.2705 3.94398C10.3828 3.79632 9.48047 4.08577 8.84473 4.69574L7.47363 6.06683Z" fill="white"/>
</g>
<defs>
<clipPath id="clip0_134_97">
<rect width="15" height="15" fill="white" transform="translate(0 0.5)"/>
</clipPath>
</defs>
</svg>
