<svg width="20" height="20" viewBox="0 0 20 20" fill="none" xmlns="http://www.w3.org/2000/svg">
<g clip-path="url(#clip0_140_347)">
<path d="M10.0044 5.50781C7.16511 5.50781 4.87493 7.51172 4.87493 9.99609C4.87493 12.4805 7.16511 14.4844 10.0044 14.4844C12.8437 14.4844 15.1339 12.4805 15.1339 9.99609C15.1339 7.51172 12.8437 5.50781 10.0044 5.50781ZM10.0044 12.9141C8.16957 12.9141 6.66957 11.6055 6.66957 9.99609C6.66957 8.38672 8.16511 7.07812 10.0044 7.07812C11.8437 7.07812 13.3392 8.38672 13.3392 9.99609C13.3392 11.6055 11.8392 12.9141 10.0044 12.9141V12.9141ZM16.5401 5.32422C16.5401 5.90625 16.0044 6.37109 15.3437 6.37109C14.6785 6.37109 14.1473 5.90234 14.1473 5.32422C14.1473 4.74609 14.683 4.27734 15.3437 4.27734C16.0044 4.27734 16.5401 4.74609 16.5401 5.32422ZM19.9374 6.38672C19.8615 4.98438 19.4955 3.74219 18.3214 2.71875C17.1517 1.69531 15.7321 1.375 14.1294 1.30469C12.4776 1.22266 7.52672 1.22266 5.87493 1.30469C4.27672 1.37109 2.85707 1.69141 1.68297 2.71484C0.508859 3.73828 0.147252 4.98047 0.0668945 6.38281C-0.0268555 7.82812 -0.0268555 12.1602 0.0668945 13.6055C0.142787 15.0078 0.508859 16.25 1.68297 17.2734C2.85707 18.2969 4.27225 18.6172 5.87493 18.6875C7.52672 18.7695 12.4776 18.7695 14.1294 18.6875C15.7321 18.6211 17.1517 18.3008 18.3214 17.2734C19.491 16.25 19.8571 15.0078 19.9374 13.6055C20.0312 12.1602 20.0312 7.83203 19.9374 6.38672V6.38672ZM17.8035 15.1562C17.4553 15.9219 16.7812 16.5117 15.9017 16.8203C14.5848 17.2773 11.4598 17.1719 10.0044 17.1719C8.54904 17.1719 5.41957 17.2734 4.10707 16.8203C3.23207 16.5156 2.55797 15.9258 2.20529 15.1562C1.68297 14.0039 1.8035 11.2695 1.8035 9.99609C1.8035 8.72266 1.68743 5.98437 2.20529 4.83594C2.5535 4.07031 3.22761 3.48047 4.10707 3.17187C5.42404 2.71484 8.54904 2.82031 10.0044 2.82031C11.4598 2.82031 14.5892 2.71875 15.9017 3.17187C16.7767 3.47656 17.4508 4.06641 17.8035 4.83594C18.3258 5.98828 18.2053 8.72266 18.2053 9.99609C18.2053 11.2695 18.3258 14.0078 17.8035 15.1562Z" fill="white"/>
</g>
<defs>
<clipPath id="clip0_140_347">
<rect width="20" height="20" fill="white"/>
</clipPath>
</defs>
</svg>
