<svg width="80" height="80" viewBox="0 0 80 80" fill="none" xmlns="http://www.w3.org/2000/svg">
<circle cx="40" cy="40" r="40" fill="#241D2F" fill-opacity="0.8"/>
<g clip-path="url(#clip0_138_265)">
<path d="M56.8889 21C58.0566 21 59 22.0613 59 23.375V56.625C59 57.9387 58.0566 59 56.8889 59C55.7212 59 54.7778 57.9387 54.7778 56.625V23.375C54.7778 22.0613 55.7212 21 56.8889 21ZM48.4444 28.125C49.6122 28.125 50.5556 29.1863 50.5556 30.5V56.625C50.5556 57.9387 49.6122 59 48.4444 59C47.2767 59 46.3333 57.9387 46.3333 56.625V30.5C46.3333 29.1863 47.2767 28.125 48.4444 28.125ZM42.1111 37.625V56.625C42.1111 57.9387 41.1677 59 40 59C38.8323 59 37.8889 57.9387 37.8889 56.625V37.625C37.8889 36.3113 38.8323 35.25 40 35.25C41.1677 35.25 42.1111 36.3113 42.1111 37.625ZM31.5556 42.375C32.7233 42.375 33.6667 43.4363 33.6667 44.75V56.625C33.6667 57.9387 32.7233 59 31.5556 59C30.3878 59 29.4444 57.9387 29.4444 56.625V44.75C29.4444 43.4363 30.3878 42.375 31.5556 42.375ZM25.2222 51.875V56.625C25.2222 57.9387 24.2788 59 23.1111 59C21.9434 59 21 57.9387 21 56.625V51.875C21 50.5613 21.9434 49.5 23.1111 49.5C24.2788 49.5 25.2222 50.5613 25.2222 51.875Z" fill="#D61DDB"/>
</g>
<defs>
<clipPath id="clip0_138_265">
<rect width="38" height="38" fill="white" transform="translate(21 21)"/>
</clipPath>
</defs>
</svg>
