<svg width="35" height="37" viewBox="0 0 35 37" fill="none" xmlns="http://www.w3.org/2000/svg">
<rect width="35" height="37" rx="17.5" fill="url(#paint0_linear_115_105)"/>
<path d="M20.1783 11.0362C20.3053 11.0978 20.3967 11.2296 20.422 11.3848L20.9272 14.5455L23.6665 15.1255C23.801 15.1548 23.9153 15.2602 23.9686 15.4067C24.0219 15.5532 24.0067 15.7201 23.928 15.8519L22.3464 18.5L23.928 21.1451C24.0067 21.2769 24.0219 21.4439 23.9686 21.5904C23.9153 21.7368 23.801 21.8423 23.6665 21.8716L20.9272 22.4545L20.422 25.6152C20.3967 25.7704 20.3053 25.9022 20.1783 25.9638C20.0514 26.0253 19.9067 26.0077 19.7924 25.9169L17.5 24.092L15.2076 25.9169C15.0933 26.0077 14.9486 26.0253 14.8217 25.9638C14.6947 25.9022 14.6033 25.7704 14.578 25.6152L14.0728 22.4545L11.3335 21.8716C11.199 21.8423 11.0847 21.7368 11.0314 21.5904C10.9781 21.4439 10.9933 21.2769 11.072 21.1451L12.6536 18.5L11.072 15.8549C10.9933 15.7231 10.9781 15.5561 11.0314 15.4096C11.0847 15.2632 11.199 15.1577 11.3335 15.1284L14.0728 14.5455L14.578 11.3848C14.6033 11.2296 14.6947 11.0978 14.8217 11.0362C14.9486 10.9747 15.0933 10.9923 15.2076 11.0831L17.5 12.908L19.7924 11.0831C19.9067 10.9923 20.0514 10.9747 20.1783 11.0362ZM19.9371 18.5C19.9371 20.0525 18.8455 21.3121 17.5 21.3121C16.1545 21.3121 15.0629 20.0525 15.0629 18.5C15.0629 16.9475 16.1545 15.6879 17.5 15.6879C18.8455 15.6879 19.9371 16.9475 19.9371 18.5ZM20.7495 18.5C20.7495 16.429 19.2949 14.7505 17.5 14.7505C15.7051 14.7505 14.2505 16.429 14.2505 18.5C14.2505 20.571 15.7051 22.2495 17.5 22.2495C19.2949 22.2495 20.7495 20.571 20.7495 18.5Z" fill="white"/>
<defs>
<linearGradient id="paint0_linear_115_105" x1="17.5" y1="0" x2="17.5" y2="37" gradientUnits="userSpaceOnUse">
<stop stop-color="#292233"/>
<stop offset="1" stop-color="#170F22"/>
</linearGradient>
</defs>
</svg>
