<svg width="20" height="20" viewBox="0 0 20 20" fill="none" xmlns="http://www.w3.org/2000/svg">
<path d="M17.9441 7.38158C17.9568 7.55923 17.9568 7.73693 17.9568 7.91458C17.9568 13.3333 13.8325 19.577 6.29441 19.577C3.97207 19.577 1.81473 18.9044 0 17.7369C0.329961 17.775 0.647187 17.7877 0.989844 17.7877C2.90605 17.7877 4.67004 17.1405 6.07867 16.0364C4.27664 15.9983 2.76648 14.8181 2.24617 13.1938C2.5 13.2318 2.75379 13.2572 3.02031 13.2572C3.38832 13.2572 3.75637 13.2064 4.09898 13.1176C2.22082 12.7369 0.812148 11.0872 0.812148 9.09478V9.04404C1.35781 9.34861 1.99238 9.53896 2.66492 9.56431C1.56086 8.82826 0.837539 7.57193 0.837539 6.1506C0.837539 5.38919 1.04055 4.69123 1.3959 4.08208C3.41367 6.56939 6.44668 8.19373 9.84766 8.37142C9.78422 8.06685 9.74613 7.74962 9.74613 7.43236C9.74613 5.17345 11.5736 3.33337 13.8451 3.33337C15.0253 3.33337 16.0913 3.8283 16.84 4.62779C17.7664 4.45013 18.6547 4.10748 19.4416 3.63794C19.137 4.58974 18.4898 5.38923 17.6395 5.89681C18.4644 5.80802 19.2639 5.57955 19.9999 5.26232C19.4416 6.07447 18.7436 6.79779 17.9441 7.38158V7.38158Z" fill="white"/>
</svg>
