<svg width="80" height="80" viewBox="0 0 80 80" fill="none" xmlns="http://www.w3.org/2000/svg">
<circle cx="40" cy="40" r="40" fill="#241D2F" fill-opacity="0.8"/>
<path d="M25.75 23.375C23.1301 23.375 21 25.5051 21 28.125V51.875C21 54.4949 23.1301 56.625 25.75 56.625H54.25C56.8699 56.625 59 54.4949 59 51.875V35.25C59 32.6301 56.8699 30.5 54.25 30.5H26.9375C26.2844 30.5 25.75 29.9656 25.75 29.3125C25.75 28.6594 26.2844 28.125 26.9375 28.125H54.25C55.5637 28.125 56.625 27.0637 56.625 25.75C56.625 24.4363 55.5637 23.375 54.25 23.375H25.75ZM51.875 45.9375C50.5613 45.9375 49.5 44.8762 49.5 43.5625C49.5 42.2488 50.5613 41.1875 51.875 41.1875C53.1887 41.1875 54.25 42.2488 54.25 43.5625C54.25 44.8762 53.1887 45.9375 51.875 45.9375Z" fill="#D61DDB"/>
</svg>
