<svg width="20" height="20" viewBox="0 0 20 20" fill="none" xmlns="http://www.w3.org/2000/svg">
<path d="M17.0045 3.79297C15.1339 2.15234 12.6429 1.25 9.99554 1.25C4.53125 1.25 0.0848214 5.14062 0.0848214 9.92188C0.0848214 11.4492 0.540179 12.9414 1.40625 14.2578L0 18.75L5.25446 17.543C6.70089 18.2344 8.33036 18.5977 9.99107 18.5977H9.99554C15.4554 18.5977 20 14.707 20 9.92578C20 7.60938 18.875 5.43359 17.0045 3.79297V3.79297ZM9.99554 17.1367C8.51339 17.1367 7.0625 16.7891 5.79911 16.1328L5.5 15.9766L2.38393 16.6914L3.21429 14.0313L3.01786 13.7578C2.19196 12.6094 1.75893 11.2852 1.75893 9.92188C1.75893 5.94922 5.45536 2.71484 10 2.71484C12.2009 2.71484 14.2679 3.46484 15.8214 4.82812C17.375 6.19141 18.3304 8 18.3259 9.92578C18.3259 13.9023 14.5357 17.1367 9.99554 17.1367V17.1367ZM14.5134 11.7383C14.2679 11.6289 13.0491 11.1055 12.8214 11.0352C12.5938 10.9609 12.4286 10.9258 12.2634 11.1445C12.0982 11.3633 11.625 11.8477 11.4777 11.9961C11.3348 12.1406 11.1875 12.1602 10.942 12.0508C9.48661 11.4141 8.53125 10.9141 7.57143 9.47266C7.31696 9.08984 7.82589 9.11719 8.29911 8.28906C8.37946 8.14453 8.33929 8.01953 8.27679 7.91016C8.21429 7.80078 7.71875 6.73438 7.51339 6.30078C7.3125 5.87891 7.10714 5.9375 6.95536 5.92969C6.8125 5.92188 6.64732 5.92188 6.48214 5.92188C6.31696 5.92188 6.04911 5.97656 5.82143 6.19141C5.59375 6.41016 4.95536 6.93359 4.95536 8C4.95536 9.06641 5.84375 10.0977 5.96429 10.2422C6.08929 10.3867 7.70982 12.5742 10.1964 13.5156C11.7679 14.1094 12.3839 14.1602 13.1696 14.0586C13.6473 13.9961 14.6339 13.5352 14.8393 13.0273C15.0446 12.5195 15.0446 12.0859 14.9821 11.9961C14.9241 11.8984 14.7589 11.8438 14.5134 11.7383Z" fill="white"/>
</svg>
